<svg width="2045" height="1091" viewBox="0 0 2045 1091" fill="none" xmlns="http://www.w3.org/2000/svg">
<rect width="2045" height="1091" fill="#F5F5F5"/>
<g filter="url(#filter0_d_0_1)">
<rect x="4" width="2037" height="1083" fill="url(#paint0_linear_0_1)" fill-opacity="0.5" style="mix-blend-mode:multiply" shape-rendering="crispEdges"/>
</g>
<g filter="url(#filter1_d_0_1)">
<path d="M253.166 536.061C257.032 522.201 270.838 509.854 289.615 503.05C300.107 499.522 310.876 498.01 327.996 498.01C358.922 497.758 366.653 502.042 380.183 526.737C391.781 547.904 396.475 549.416 423.811 539.336C444.797 531.525 450.319 532.281 468.82 544.628C484.006 554.708 488.977 564.787 492.014 589.734C493.671 605.106 495.051 608.13 502.783 614.933C507.753 618.965 521.007 626.777 532.604 631.817C549.448 639.376 555.523 643.66 562.978 653.236C575.404 669.615 575.128 681.206 561.321 709.177C551.105 729.588 550.829 730.596 552.761 751.008C555.523 780.994 552.209 789.562 531.776 805.689C519.074 816.021 514.38 821.817 511.619 830.636C500.298 864.907 483.73 872.718 448.11 860.371L432.923 855.331L427.401 860.371C422.431 864.907 417.736 866.167 405.035 866.167C404.206 866.419 400.341 865.663 396.199 864.655L388.467 863.143V948.315C388.467 1004.26 389.572 1036.51 391.505 1041.8C395.094 1051.38 407.244 1057.68 422.154 1058.18C427.953 1058.18 425.744 1066.74 425.744 1068C425.744 1066.74 273.047 1064.47 282.159 1063.72C300.936 1062.2 324.13 1047.1 327.996 1037.77C329.377 1034.5 330.481 995.689 330.481 951.843V871.962H300.936C261.45 871.962 247.368 867.427 224.173 847.52C200.426 827.36 195.732 812.745 208.434 799.39C210.643 797.122 212.024 794.602 211.471 794.098C210.919 793.846 202.911 788.806 193.523 783.01C164.806 765.623 151 747.48 151 727.321C151 717.493 161.769 695.57 173.09 682.466C180.821 673.395 179.993 664.575 168.948 645.424C161.493 632.573 159.284 625.265 159.284 615.437C159.284 582.175 191.59 555.968 229.972 558.74C244.882 559.496 247.644 556.976 253.166 536.061Z" fill="url(#paint1_radial_0_1)" style="mix-blend-mode:darken" shape-rendering="crispEdges"/>
</g>
<g filter="url(#filter2_d_0_1)">
<ellipse cx="1800.5" cy="148" rx="76.5" ry="74" fill="url(#paint2_linear_0_1)"/>
</g>
<g filter="url(#filter3_d_0_1)">
<g filter="url(#filter4_d_0_1)">
<path d="M1647.86 733.923L1608.39 766.772L1607.73 753.246L1607.07 739.72H1578.79H1550.28V777.979V816.239L1531.42 831.311C1521.12 839.62 1511.25 848.508 1509.28 851.02C1506.21 855.271 1506.21 856.044 1509.49 860.488C1511.69 863.387 1515.2 865.319 1518.27 865.319C1522.87 865.319 1556.2 838.267 1684.26 730.638L1692.15 724.068L1722.63 749.768C1759.91 781.071 1829.42 839.233 1847.62 854.305C1855.07 860.488 1862.97 865.319 1865.6 865.319C1871.08 865.319 1877 860.488 1877 855.658C1877 853.532 1843.89 824.354 1793.24 781.844C1690.18 695.47 1696.98 701.074 1691.71 701.074C1689.08 701.074 1671.54 714.407 1647.86 733.923Z" fill="url(#paint3_radial_0_1)"/>
</g>
<path d="M1662.55 771.023C1638.65 791.505 1621.76 805.804 1570.67 849.088L1561.24 857.01V933.529C1561.24 975.46 1561.9 1011.21 1562.56 1012.95C1563.66 1015.65 1569.8 1016.04 1608.61 1016.04H1653.34L1653.78 968.311L1654.44 920.39H1691.71H1728.99L1729.65 968.311L1730.09 1016.04L1775.69 1015.65L1821.08 1015.07L1821.74 936.428L1822.18 857.783L1787.76 828.219C1768.68 811.988 1740.61 787.834 1725.04 774.501C1709.47 761.168 1695.44 749.575 1693.69 748.802C1691.05 747.449 1683.16 753.246 1662.55 771.023Z" fill="url(#paint4_radial_0_1)" style="mix-blend-mode:color-burn"/>
</g>
<g filter="url(#filter5_d_0_1)">
<path d="M366.726 120.362C343.21 122.823 322.198 131.94 305.975 146.76C295.781 156.013 286.838 168.701 282.527 179.985C281.449 182.806 280.849 183.576 279.979 183.204C265.986 177.11 251.174 179.383 240.235 189.332C235.176 193.924 231.919 199.829 230.468 206.834L229.498 211.647L217.008 211.052C202.326 210.344 195.073 211.128 183.889 214.821C170.058 219.315 158.644 227.408 151.201 238.064C146.389 245.005 144.603 250.441 144.435 259.176C144.172 272.882 149.875 284.287 161.971 294.039C182.2 310.483 212.957 315.478 239.956 306.76C250.991 303.207 249.825 302.971 252.994 309.284C261.866 327.002 283.869 338.649 303.803 336.119C314.137 334.825 324.017 330.468 331.897 323.728L335.018 321.088L338.863 322.654C348.293 326.529 353.027 327.472 365.305 327.708C375.318 327.9 377.808 327.664 382.658 326.407C389.712 324.553 395.459 322.248 400.488 319.219L404.408 316.879L408.651 320.583C418.072 328.721 427.77 333.88 440.642 337.466C448.497 339.606 450.101 339.85 460.844 340.056C473.413 340.368 479.424 339.56 489.794 336.349C503.621 332.068 516.212 323.642 526.085 312.038L528.703 308.963L535.285 308.876C552.835 308.715 567.572 298.91 574.091 283.051C576.774 276.566 577.056 265.702 574.704 258.695C568.556 240.035 548.677 228.215 528.148 231.231L524.702 231.734L520.537 227.817C508.904 216.796 496.744 210.382 478.626 205.913L474.915 204.99L474.473 201.358C471.282 173.306 450.832 145.562 422.811 131.313C409.852 124.67 396.027 121.208 379.882 120.543C374.038 120.289 368.117 120.246 366.726 120.362Z" fill="url(#paint5_linear_0_1)"/>
</g>
<g filter="url(#filter6_d_0_1)">
<path d="M717.152 56.451C701.652 59.751 687.552 70.951 680.452 85.651L676.652 93.451L671.652 91.151C661.552 86.551 650.552 88.751 642.252 97.151C638.252 101.051 634.152 109.651 634.152 113.851C634.152 115.251 632.452 116.651 628.352 118.751C606.452 129.851 597.452 160.551 609.152 184.451C613.052 192.451 619.052 198.451 627.152 202.251L633.652 205.351L711.052 205.651C781.252 205.851 788.952 205.751 793.552 204.251C799.552 202.251 807.552 197.351 811.352 193.251C818.852 185.151 824.152 171.351 824.152 160.151C824.052 138.051 808.452 118.351 788.052 114.551C782.352 113.551 782.152 113.351 781.652 109.951C778.752 91.251 774.252 81.651 763.352 70.951C754.752 62.451 747.852 58.551 737.352 56.251C729.152 54.551 725.552 54.551 717.152 56.451Z" fill="url(#paint6_linear_0_1)"/>
</g>
<g filter="url(#filter7_d_0_1)">
<path d="M1009.51 237.188C999.624 237.85 988.803 241.78 981.555 247.267C978.552 249.563 975.756 252.209 974.513 253.921C973.996 254.66 973.322 255.516 973.012 255.828C972.08 256.801 969.129 262.21 969.129 262.949C969.129 263.844 968.249 265.206 967.627 265.206C967.368 265.206 965.246 264.233 962.916 263.066C947.28 255.244 929.781 253.026 911.919 256.489C906.431 257.579 899.286 259.836 895.351 261.743C894.522 262.132 893.435 262.599 893.021 262.754C892.607 262.871 890.484 264 888.361 265.206C878.058 271.082 869.205 280.966 866.15 290.11C864.649 294.663 863.924 299.722 864.235 304.003L864.494 308.4H859.782C853.103 308.4 841.765 309.878 837.364 311.318C836.536 311.591 834.568 312.213 833.067 312.641C824.731 315.21 815.101 320.619 809.924 325.561C808.526 326.922 807.232 328.129 807.076 328.246C806.403 328.713 802.934 332.759 802.934 333.071C802.934 333.265 802.624 333.732 802.261 334.044C801.847 334.394 800.812 336.067 799.88 337.779C798.948 339.492 797.861 341.476 797.446 342.177C797.032 342.877 796.721 343.85 796.721 344.317C796.721 344.784 796.359 346.029 795.893 347.119C794.702 349.959 794.702 362.489 795.893 365.992C798.792 374.436 800.553 377.549 805.937 383.697C809.044 387.238 817.69 393.737 822.66 396.227C826.595 398.212 835.966 401.792 837.157 401.792C837.571 401.792 838.762 402.025 839.953 402.337C841.092 402.648 843.888 403.193 846.166 403.582C848.444 403.971 850.515 404.399 850.722 404.516C850.929 404.671 850.877 406.656 850.566 408.991C849.79 414.867 850.773 421.521 853.466 428.058C854.294 430.004 854.76 430.86 856.779 434.09C860.921 440.705 868.118 447.243 876.35 451.912C885.514 457.127 893.021 459.656 905.965 461.952C911.349 462.925 926.312 462.925 931.852 461.952C937.236 461.018 942.672 459.734 943.035 459.345C943.19 459.15 943.604 458.995 943.967 458.995C946.762 458.995 958.308 453.391 964.366 449.111L967.058 447.204L969.957 448.721C974.772 451.29 982.279 454.325 983.677 454.325C983.988 454.325 984.868 454.558 985.593 454.87C988.958 456.193 998.743 457.438 1006.15 457.516C1017.28 457.594 1029.81 454.636 1040.47 449.383C1042.08 448.605 1045.81 446.153 1048.76 443.935C1051.66 441.717 1054.19 439.927 1054.3 439.927C1054.4 439.927 1057.71 442.34 1061.65 445.297C1067.76 449.889 1074.54 454.325 1075.47 454.325C1075.63 454.325 1076.82 454.87 1078.22 455.57C1081.12 457.049 1090.8 460.785 1093.08 461.29C1093.96 461.485 1095.97 462.03 1097.53 462.458C1101.46 463.586 1105.66 464.403 1112.02 465.26C1118.19 466.077 1135.43 466.271 1139.47 465.571C1140.76 465.337 1143.19 465.026 1144.9 464.832C1149.25 464.365 1153.13 463.547 1159.4 461.796C1162.5 460.94 1168.25 458.995 1170.01 458.216C1175.24 455.92 1179.33 454.053 1180.37 453.43C1186.68 449.85 1194.35 444.169 1198.95 439.616C1201.75 436.853 1208.32 428.992 1208.32 428.448C1208.32 428.331 1209 427.163 1209.77 425.84C1212.57 421.249 1213.71 418.797 1215.21 414.439C1218.89 403.621 1218.94 390.235 1215.31 380.584C1214.9 379.494 1214.49 378.288 1214.33 377.86C1214.23 377.432 1213.61 376.109 1212.98 374.942C1212.36 373.774 1211.69 372.373 1211.48 371.829C1211.07 370.895 1208.32 366.575 1207.13 365.019C1204.34 361.361 1202.99 359.882 1199.68 356.574C1197.61 354.512 1195.9 352.605 1195.9 352.372C1195.9 352.138 1196.52 351.243 1197.3 350.309C1202.11 344.706 1205.53 338.558 1206.77 333.11C1207.03 332.02 1207.44 330.23 1207.75 329.063C1209.36 322.992 1207.7 311.201 1204.39 305.364C1203.98 304.664 1203.66 303.925 1203.66 303.73C1203.66 303.146 1200.61 298.36 1198.8 296.142C1196.16 292.873 1191.55 288.476 1187.82 285.752C1184.46 283.301 1178.45 279.682 1176.74 279.098C1176.33 278.942 1175.29 278.475 1174.41 278.047C1172.39 277.113 1165.46 274.545 1164.83 274.545C1164.58 274.545 1163.59 274.312 1162.66 274C1160.59 273.339 1156.5 272.444 1151.79 271.627C1147.02 270.809 1131.91 270.809 1127.14 271.627C1122.9 272.366 1118.6 273.3 1116.17 274C1112.18 275.129 1112.7 275.207 1107 272.599C1102.96 270.732 1094.68 268.124 1089.76 267.19C1083.29 265.945 1071.28 265.4 1065.32 266.062C1062.48 266.412 1062.27 266.257 1061.08 262.793C1059.27 257.618 1054.45 251.508 1048.71 247.267C1038.14 239.484 1025.1 236.138 1009.51 237.188Z" fill="url(#paint7_linear_0_1)"/>
</g>
<g filter="url(#filter8_d_0_1)">
<path d="M275.548 115.88C272.635 118.473 267.322 122.133 263.551 123.811C249.841 129.912 245.213 136.927 252.411 140.282C254.297 141.197 257.896 141.502 260.466 140.892C263.894 140.13 264.751 140.282 263.551 141.655C261.495 143.485 248.641 146.383 236.644 147.45C230.303 148.06 227.218 147.45 222.762 145.01C219.506 143.18 215.393 141.807 213.679 141.655C211.108 141.655 211.28 141.35 214.707 140.13C221.048 137.842 216.078 135.707 204.082 135.707C193.97 135.707 189 134.639 189 132.657C189 132.047 192.256 131.742 196.198 132.199C200.311 132.504 206.652 132.199 210.423 131.437C216.078 130.369 218.306 130.674 223.448 133.267L229.789 136.317L235.616 130.827C239.729 126.861 244.356 124.574 251.555 122.743C257.21 121.371 266.122 118.016 271.264 115.575L280.69 111L275.548 115.88Z" fill="url(#paint8_angular_0_1)"/>
<path d="M662.85 238.487C665.593 239.097 672.276 240.775 677.418 242.147C682.559 243.367 688.386 244.435 690.272 244.587C693.357 244.587 693.185 244.892 689.415 246.418C687.015 247.333 684.959 248.095 684.787 248.248C684.616 248.4 685.987 251.298 688.044 254.806C689.929 258.466 691.129 261.669 690.614 262.279C689.072 263.499 679.646 256.941 674.676 251.145C668.335 243.825 662.508 244.13 653.596 252.366C649.825 256.026 645.369 261.211 643.656 263.804C639.714 270.362 638 270.21 638 263.499C638 256.178 641.77 248.705 647.426 244.74C649.997 242.91 651.539 240.927 651.025 240.012C650.511 239.25 651.196 238.182 652.739 237.724C655.824 236.657 655.995 236.657 662.85 238.487Z" fill="url(#paint9_angular_0_1)"/>
<path d="M839.879 273.423C837.308 276.016 830.625 280.286 825.14 283.184C813.486 288.979 809.887 293.86 814.172 297.825C816.057 299.35 818.628 299.96 821.884 299.35C824.455 298.892 826.683 299.197 826.683 299.96C826.683 300.723 823.769 301.79 820.17 302.4C816.743 302.858 810.573 304.23 806.631 305.45C799.09 307.586 791.892 306.671 784.865 302.4C782.809 301.333 779.553 299.96 777.839 299.502C774.754 298.892 774.754 298.74 777.496 298.587C779.21 298.587 780.409 297.52 780.067 296.452C779.553 295.385 774.582 294.317 767.042 293.86C760.358 293.402 754.017 292.334 753.16 291.572C750.418 289.132 783.837 289.589 789.15 292.029C793.263 294.012 793.949 293.707 799.433 288.827C803.375 285.471 809.202 282.574 817.257 280.286C823.769 278.303 832.681 275.1 836.966 272.813L844.678 269L839.879 273.423Z" fill="url(#paint10_angular_0_1)"/>
<path d="M600.849 374.487C602.391 375.402 608.561 376.927 614.559 378.147C623.985 379.825 624.671 380.282 620.729 381.198L616.273 382.418L619.701 389.281C621.586 392.941 622.614 396.449 622.1 396.906C620.729 398.126 611.132 391.568 606.333 385.773C599.821 378.3 595.022 378.757 584.568 388.366C579.94 392.636 575.141 398.279 573.942 400.872C572.057 404.989 571.371 405.294 570.514 403.007C569.829 401.634 569.829 397.211 570.514 393.246C571.371 387.756 573.085 384.858 577.712 381.045C580.968 378.3 583.025 375.402 582.511 374.487C581.14 372.504 596.907 372.504 600.849 374.487Z" fill="url(#paint11_angular_0_1)"/>
<path d="M550.749 134.423C548.179 136.863 541.495 141.133 536.011 144.031C524.357 149.674 520.758 154.707 525.042 158.52C527.099 160.35 529.498 160.807 533.954 160.045C543.38 158.52 538.239 162.028 528.127 164.01C511.674 167.213 504.133 167.366 497.964 164.315C494.707 162.79 490.594 161.113 488.709 160.655C485.624 159.74 485.624 159.587 488.366 159.435C490.08 159.282 491.28 158.367 490.937 157.3C490.423 156.232 486.138 155.317 479.626 155.012C473.799 154.707 469 153.944 469 153.334C469 152.572 474.656 151.504 481.682 150.894C492.308 150.132 495.222 150.284 498.992 152.572C503.277 155.165 503.619 155.012 508.932 150.589C515.102 145.251 523.842 140.981 528.47 140.981C530.184 140.981 536.867 138.541 543.551 135.49L555.548 130L550.749 134.423Z" fill="url(#paint12_angular_0_1)"/>
<path d="M367.503 383.984C371.787 385.51 378.128 386.882 381.727 386.882C385.669 387.035 387.897 387.645 387.212 388.56C386.698 389.322 384.641 390.085 382.756 390.085C378.643 390.085 378.643 390.237 383.098 396.795C384.984 399.693 386.355 403.354 386.012 404.879C385.498 407.014 382.927 405.489 374.701 398.016C364.589 388.865 363.561 388.407 358.934 389.78C353.107 391.61 342.995 401.066 339.053 408.386C336.311 413.419 336.14 413.572 334.769 410.217C332.369 404.269 335.797 394.355 342.138 389.322C345.223 386.882 347.622 383.984 347.28 382.917C346.594 379.867 358.419 380.629 367.503 383.984Z" fill="url(#paint13_angular_0_1)"/>
</g>
<defs>
<filter id="filter0_d_0_1" x="0" y="0" width="2045" height="1091" filterUnits="userSpaceOnUse" color-interpolation-filters="sRGB">
<feFlood flood-opacity="0" result="BackgroundImageFix"/>
<feColorMatrix in="SourceAlpha" type="matrix" values="0 0 0 0 0 0 0 0 0 0 0 0 0 0 0 0 0 0 127 0" result="hardAlpha"/>
<feOffset dy="4"/>
<feGaussianBlur stdDeviation="2"/>
<feComposite in2="hardAlpha" operator="out"/>
<feColorMatrix type="matrix" values="0 0 0 0 0 0 0 0 0 0 0 0 0 0 0 0 0 0 0.25 0"/>
<feBlend mode="normal" in2="BackgroundImageFix" result="effect1_dropShadow_0_1"/>
<feBlend mode="normal" in="SourceGraphic" in2="effect1_dropShadow_0_1" result="shape"/>
</filter>
<filter id="filter1_d_0_1" x="151" y="498" width="435" height="579" filterUnits="userSpaceOnUse" color-interpolation-filters="sRGB">
<feFlood flood-opacity="0" result="BackgroundImageFix"/>
<feColorMatrix in="SourceAlpha" type="matrix" values="0 0 0 0 0 0 0 0 0 0 0 0 0 0 0 0 0 0 127 0" result="hardAlpha"/>
<feOffset dx="10" dy="5"/>
<feGaussianBlur stdDeviation="2"/>
<feComposite in2="hardAlpha" operator="out"/>
<feColorMatrix type="matrix" values="0 0 0 0 0.729412 0 0 0 0 0.545098 0 0 0 0 0.964706 0 0 0 1 0"/>
<feBlend mode="normal" in2="BackgroundImageFix" result="effect1_dropShadow_0_1"/>
<feBlend mode="normal" in="SourceGraphic" in2="effect1_dropShadow_0_1" result="shape"/>
</filter>
<filter id="filter2_d_0_1" x="1724" y="74" width="166" height="156" filterUnits="userSpaceOnUse" color-interpolation-filters="sRGB">
<feFlood flood-opacity="0" result="BackgroundImageFix"/>
<feColorMatrix in="SourceAlpha" type="matrix" values="0 0 0 0 0 0 0 0 0 0 0 0 0 0 0 0 0 0 127 0" result="hardAlpha"/>
<feOffset dx="10" dy="5"/>
<feGaussianBlur stdDeviation="1.5"/>
<feComposite in2="hardAlpha" operator="out"/>
<feColorMatrix type="matrix" values="0 0 0 0 0.968627 0 0 0 0 0.631373 0 0 0 0 0.4 0 0 0 1 0"/>
<feBlend mode="color-burn" in2="BackgroundImageFix" result="effect1_dropShadow_0_1"/>
<feBlend mode="normal" in="SourceGraphic" in2="effect1_dropShadow_0_1" result="shape"/>
</filter>
<filter id="filter3_d_0_1" x="1507" y="701" width="384" height="323.038" filterUnits="userSpaceOnUse" color-interpolation-filters="sRGB">
<feFlood flood-opacity="0" result="BackgroundImageFix"/>
<feColorMatrix in="SourceAlpha" type="matrix" values="0 0 0 0 0 0 0 0 0 0 0 0 0 0 0 0 0 0 127 0" result="hardAlpha"/>
<feOffset dx="10" dy="4"/>
<feGaussianBlur stdDeviation="2"/>
<feComposite in2="hardAlpha" operator="out"/>
<feColorMatrix type="matrix" values="0 0 0 0 0.909804 0 0 0 0 0.333333 0 0 0 0 0.752941 0 0 0 0.5 0"/>
<feBlend mode="normal" in2="BackgroundImageFix" result="effect1_dropShadow_0_1"/>
<feBlend mode="normal" in="SourceGraphic" in2="effect1_dropShadow_0_1" result="shape"/>
</filter>
<filter id="filter4_d_0_1" x="1503" y="701" width="378" height="172.319" filterUnits="userSpaceOnUse" color-interpolation-filters="sRGB">
<feFlood flood-opacity="0" result="BackgroundImageFix"/>
<feColorMatrix in="SourceAlpha" type="matrix" values="0 0 0 0 0 0 0 0 0 0 0 0 0 0 0 0 0 0 127 0" result="hardAlpha"/>
<feOffset dy="4"/>
<feGaussianBlur stdDeviation="2"/>
<feComposite in2="hardAlpha" operator="out"/>
<feColorMatrix type="matrix" values="0 0 0 0 0.913725 0 0 0 0 0.309804 0 0 0 0 0.733333 0 0 0 0.3 0"/>
<feBlend mode="normal" in2="BackgroundImageFix" result="effect1_dropShadow_0_1"/>
<feBlend mode="normal" in="SourceGraphic" in2="effect1_dropShadow_0_1" result="shape"/>
</filter>
<filter id="filter5_d_0_1" x="144.427" y="120.301" width="445.874" height="228.817" filterUnits="userSpaceOnUse" color-interpolation-filters="sRGB">
<feFlood flood-opacity="0" result="BackgroundImageFix"/>
<feColorMatrix in="SourceAlpha" type="matrix" values="0 0 0 0 0 0 0 0 0 0 0 0 0 0 0 0 0 0 127 0" result="hardAlpha"/>
<feOffset dx="10" dy="5"/>
<feGaussianBlur stdDeviation="2"/>
<feComposite in2="hardAlpha" operator="out"/>
<feColorMatrix type="matrix" values="0 0 0 0 0.866667 0 0 0 0 0.458824 0 0 0 0 0.603922 0 0 0 1 0"/>
<feBlend mode="normal" in2="BackgroundImageFix" result="effect1_dropShadow_0_1"/>
<feBlend mode="normal" in="SourceGraphic" in2="effect1_dropShadow_0_1" result="shape"/>
</filter>
<filter id="filter6_d_0_1" x="604" y="55" width="234.152" height="159.728" filterUnits="userSpaceOnUse" color-interpolation-filters="sRGB">
<feFlood flood-opacity="0" result="BackgroundImageFix"/>
<feColorMatrix in="SourceAlpha" type="matrix" values="0 0 0 0 0 0 0 0 0 0 0 0 0 0 0 0 0 0 127 0" result="hardAlpha"/>
<feOffset dx="10" dy="5"/>
<feGaussianBlur stdDeviation="2"/>
<feComposite in2="hardAlpha" operator="out"/>
<feColorMatrix type="matrix" values="0 0 0 0 0.780392 0 0 0 0 0.423529 0 0 0 0 0.717647 0 0 0 1 0"/>
<feBlend mode="normal" in2="BackgroundImageFix" result="effect1_dropShadow_0_1"/>
<feBlend mode="normal" in="SourceGraphic" in2="effect1_dropShadow_0_1" result="shape"/>
</filter>
<filter id="filter7_d_0_1" x="795" y="237" width="437" height="238" filterUnits="userSpaceOnUse" color-interpolation-filters="sRGB">
<feFlood flood-opacity="0" result="BackgroundImageFix"/>
<feColorMatrix in="SourceAlpha" type="matrix" values="0 0 0 0 0 0 0 0 0 0 0 0 0 0 0 0 0 0 127 0" result="hardAlpha"/>
<feOffset dx="10" dy="5"/>
<feGaussianBlur stdDeviation="2"/>
<feComposite in2="hardAlpha" operator="out"/>
<feColorMatrix type="matrix" values="0 0 0 0 0.929412 0 0 0 0 0.482353 0 0 0 0 0.517647 0 0 0 1 0"/>
<feBlend mode="color-burn" in2="BackgroundImageFix" result="effect1_dropShadow_0_1"/>
<feBlend mode="normal" in="SourceGraphic" in2="effect1_dropShadow_0_1" result="shape"/>
</filter>
<filter id="filter8_d_0_1" x="189" y="111" width="669.678" height="310.491" filterUnits="userSpaceOnUse" color-interpolation-filters="sRGB">
<feFlood flood-opacity="0" result="BackgroundImageFix"/>
<feColorMatrix in="SourceAlpha" type="matrix" values="0 0 0 0 0 0 0 0 0 0 0 0 0 0 0 0 0 0 127 0" result="hardAlpha"/>
<feOffset dx="10" dy="5"/>
<feGaussianBlur stdDeviation="2"/>
<feComposite in2="hardAlpha" operator="out"/>
<feColorMatrix type="matrix" values="0 0 0 0 0.494118 0 0 0 0 0.411765 0 0 0 0 0.980392 0 0 0 1 0"/>
<feBlend mode="normal" in2="BackgroundImageFix" result="effect1_dropShadow_0_1"/>
<feBlend mode="normal" in="SourceGraphic" in2="effect1_dropShadow_0_1" result="shape"/>
</filter>
<linearGradient id="paint0_linear_0_1" x1="1949.5" y1="111" x2="285.769" y2="1324.28" gradientUnits="userSpaceOnUse">
<stop stop-color="#FF00CC"/>
<stop offset="0.153482" stop-color="#F44CD5"/>
<stop offset="0.950499" stop-color="#0098FF"/>
<stop offset="1" stop-color="#00A5FF"/>
</linearGradient>
<radialGradient id="paint1_radial_0_1" cx="0" cy="0" r="1" gradientUnits="userSpaceOnUse" gradientTransform="translate(381.564 942.761) rotate(-103.293) scale(348.257 254.948)">
<stop stop-color="#F11184"/>
<stop offset="1" stop-color="#DF97F9"/>
</radialGradient>
<linearGradient id="paint2_linear_0_1" x1="1855.58" y1="97.68" x2="1803.52" y2="223.253" gradientUnits="userSpaceOnUse">
<stop stop-color="#DEFF99"/>
<stop offset="1" stop-color="#FF8255"/>
</linearGradient>
<radialGradient id="paint3_radial_0_1" cx="0" cy="0" r="1" gradientUnits="userSpaceOnUse" gradientTransform="translate(1692 783.16) rotate(-90) scale(82.1596 185)">
<stop stop-color="#F40076"/>
<stop offset="1" stop-color="#E188ED"/>
</radialGradient>
<radialGradient id="paint4_radial_0_1" cx="0" cy="0" r="1" gradientUnits="userSpaceOnUse" gradientTransform="translate(1691.71 882.326) rotate(-90) scale(133.712 130.469)">
<stop stop-color="#EF2092"/>
<stop offset="0.0001" stop-color="#EF2092"/>
<stop offset="0.9999" stop-color="#EB42AF"/>
<stop offset="1" stop-color="#E473D9" stop-opacity="0.89"/>
</radialGradient>
<linearGradient id="paint5_linear_0_1" x1="246.885" y1="265.747" x2="502.512" y2="230.963" gradientUnits="userSpaceOnUse">
<stop stop-color="#ED7B84"/>
<stop offset="1" stop-color="#A55DE3"/>
</linearGradient>
<linearGradient id="paint6_linear_0_1" x1="714.076" y1="205.728" x2="714.076" y2="55" gradientUnits="userSpaceOnUse">
<stop stop-color="#ED7B84"/>
<stop offset="1" stop-color="#A85FE0"/>
</linearGradient>
<linearGradient id="paint7_linear_0_1" x1="946" y1="448" x2="1034.5" y2="268" gradientUnits="userSpaceOnUse">
<stop stop-color="#ED7B84"/>
<stop offset="1" stop-color="#A55DE3"/>
</linearGradient>
<radialGradient id="paint8_angular_0_1" cx="0" cy="0" r="1" gradientUnits="userSpaceOnUse" gradientTransform="translate(234.845 129.335) rotate(-90) scale(18.3352 45.8448)">
<stop stop-color="#9055FF"/>
<stop offset="1" stop-color="#1DD5DD"/>
</radialGradient>
<radialGradient id="paint9_angular_0_1" cx="0" cy="0" r="1" gradientUnits="userSpaceOnUse" gradientTransform="translate(665.214 252.814) rotate(-90) scale(15.8143 27.2142)">
<stop stop-color="#9055FF"/>
<stop offset="1" stop-color="#1DD5DD"/>
</radialGradient>
<radialGradient id="paint10_angular_0_1" cx="0" cy="0" r="1" gradientUnits="userSpaceOnUse" gradientTransform="translate(798.839 287.779) rotate(-90) scale(18.7793 45.8389)">
<stop stop-color="#9055FF"/>
<stop offset="1" stop-color="#1DD5DD"/>
</radialGradient>
<radialGradient id="paint11_angular_0_1" cx="0" cy="0" r="1" gradientUnits="userSpaceOnUse" gradientTransform="translate(596.498 388.715) rotate(-90) scale(15.7148 26.498)">
<stop stop-color="#9055FF"/>
<stop offset="1" stop-color="#1DD5DD"/>
</radialGradient>
<radialGradient id="paint12_angular_0_1" cx="0" cy="0" r="1" gradientUnits="userSpaceOnUse" gradientTransform="translate(512.274 148.255) rotate(-90) scale(18.2554 43.2741)">
<stop stop-color="#9055FF"/>
<stop offset="1" stop-color="#1DD5DD"/>
</radialGradient>
<radialGradient id="paint13_angular_0_1" cx="0" cy="0" r="1" gradientUnits="userSpaceOnUse" gradientTransform="translate(360.667 396.746) rotate(-90) scale(15.7456 26.6673)">
<stop stop-color="#9055FF"/>
<stop offset="1" stop-color="#1DD5DD"/>
</radialGradient>
</defs>
</svg>
