<svg width="670" height="311" viewBox="0 0 670 311" fill="none" xmlns="http://www.w3.org/2000/svg">
<g filter="url(#filter0_d_22_3)">
<path d="M86.5481 4.88039C83.6346 7.4731 78.3217 11.1334 74.5513 12.811C60.8407 18.9115 56.2134 25.9271 63.4115 29.2824C65.2967 30.1974 68.8957 30.5025 71.4664 29.8924C74.8941 29.1298 75.751 29.2824 74.5513 30.655C72.4947 32.4851 59.6411 35.3829 47.6443 36.4504C41.3031 37.0605 38.2182 36.4504 33.7623 34.0102C30.506 32.1801 26.3929 30.8075 24.679 30.655C22.1083 30.655 22.2797 30.3499 25.7073 29.1298C32.0485 26.8422 27.0784 24.707 15.0816 24.707C4.97005 24.707 -4.57764e-05 23.6394 -4.57764e-05 21.6567C-4.57764e-05 21.0467 3.25622 20.7417 7.19801 21.1992C11.3112 21.5042 17.6523 21.1992 21.4228 20.4366C27.0784 19.3691 29.3064 19.6741 34.4478 22.2668L40.789 25.317L46.616 19.8266C50.7292 15.8613 55.3565 13.5736 62.5546 11.7434C68.2102 10.3708 77.1221 7.01557 82.2635 4.57537L91.6896 0L86.5481 4.88039Z" fill="url(#paint0_angular_22_3)"/>
<path d="M473.85 127.487C476.593 128.097 483.276 129.775 488.418 131.147C493.559 132.367 499.386 133.435 501.272 133.587C504.357 133.587 504.185 133.892 500.415 135.418C498.015 136.333 495.959 137.095 495.787 137.248C495.616 137.4 496.987 140.298 499.044 143.806C500.929 147.466 502.129 150.669 501.614 151.279C500.072 152.499 490.646 145.941 485.676 140.145C479.335 132.825 473.508 133.13 464.596 141.366C460.825 145.026 456.369 150.211 454.656 152.804C450.714 159.362 449 159.21 449 152.499C449 145.178 452.77 137.705 458.426 133.74C460.997 131.91 462.539 129.927 462.025 129.012C461.511 128.25 462.196 127.182 463.739 126.724C466.824 125.657 466.995 125.657 473.85 127.487Z" fill="url(#paint1_angular_22_3)"/>
<path d="M650.879 162.423C648.308 165.016 641.625 169.286 636.14 172.184C624.486 177.979 620.887 182.86 625.172 186.825C627.057 188.35 629.628 188.96 632.884 188.35C635.455 187.892 637.683 188.197 637.683 188.96C637.683 189.723 634.769 190.79 631.17 191.4C627.743 191.858 621.573 193.23 617.631 194.45C610.09 196.586 602.892 195.671 595.865 191.4C593.809 190.333 590.553 188.96 588.839 188.502C585.754 187.892 585.754 187.74 588.496 187.587C590.21 187.587 591.409 186.52 591.067 185.452C590.553 184.385 585.582 183.317 578.042 182.86C571.358 182.402 565.017 181.334 564.16 180.572C561.418 178.132 594.837 178.589 600.15 181.029C604.263 183.012 604.949 182.707 610.433 177.827C614.375 174.471 620.202 171.574 628.257 169.286C634.769 167.303 643.681 164.1 647.966 161.813L655.678 158L650.879 162.423Z" fill="url(#paint2_angular_22_3)"/>
<path d="M411.849 263.487C413.391 264.402 419.561 265.927 425.559 267.147C434.985 268.825 435.671 269.282 431.729 270.198L427.273 271.418L430.701 278.281C432.586 281.941 433.614 285.449 433.1 285.906C431.729 287.126 422.132 280.568 417.333 274.773C410.821 267.3 406.022 267.757 395.568 277.366C390.94 281.636 386.141 287.279 384.942 289.872C383.057 293.989 382.371 294.294 381.514 292.007C380.829 290.634 380.829 286.211 381.514 282.246C382.371 276.756 384.085 273.858 388.712 270.045C391.968 267.3 394.025 264.402 393.511 263.487C392.14 261.504 407.907 261.504 411.849 263.487Z" fill="url(#paint3_angular_22_3)"/>
<path d="M361.749 23.4229C359.179 25.8631 352.495 30.1334 347.011 33.0311C335.357 38.6741 331.758 43.707 336.042 47.5198C338.099 49.35 340.498 49.8075 344.954 49.0449C354.38 47.5198 349.239 51.0276 339.127 53.0102C322.674 56.213 315.133 56.3655 308.964 53.3153C305.707 51.7901 301.594 50.1125 299.709 49.655C296.624 48.7399 296.624 48.5874 299.366 48.4349C301.08 48.2824 302.28 47.3673 301.937 46.2997C301.423 45.2321 297.138 44.317 290.626 44.012C284.799 43.707 280 42.9444 280 42.3344C280 41.5718 285.656 40.5042 292.682 39.8942C303.308 39.1316 306.222 39.2841 309.992 41.5718C314.277 44.1645 314.619 44.012 319.932 39.5892C326.102 34.2512 334.842 29.9809 339.47 29.9809C341.184 29.9809 347.867 27.5407 354.551 24.4904L366.548 19L361.749 23.4229Z" fill="url(#paint4_angular_22_3)"/>
<path d="M178.503 272.984C182.787 274.51 189.128 275.882 192.727 275.882C196.669 276.035 198.897 276.645 198.212 277.56C197.698 278.322 195.641 279.085 193.756 279.085C189.643 279.085 189.643 279.237 194.098 285.795C195.984 288.693 197.355 292.354 197.012 293.879C196.498 296.014 193.927 294.489 185.701 287.016C175.589 277.865 174.561 277.407 169.934 278.78C164.107 280.61 153.995 290.066 150.053 297.386C147.311 302.419 147.14 302.572 145.769 299.217C143.369 293.269 146.797 283.355 153.138 278.322C156.223 275.882 158.622 272.984 158.28 271.917C157.594 268.867 169.419 269.629 178.503 272.984Z" fill="url(#paint5_angular_22_3)"/>
</g>
<defs>
<filter id="filter0_d_22_3" x="-6.10352e-05" y="0" width="669.678" height="310.491" filterUnits="userSpaceOnUse" color-interpolation-filters="sRGB">
<feFlood flood-opacity="0" result="BackgroundImageFix"/>
<feColorMatrix in="SourceAlpha" type="matrix" values="0 0 0 0 0 0 0 0 0 0 0 0 0 0 0 0 0 0 127 0" result="hardAlpha"/>
<feOffset dx="10" dy="5"/>
<feGaussianBlur stdDeviation="2"/>
<feComposite in2="hardAlpha" operator="out"/>
<feColorMatrix type="matrix" values="0 0 0 0 0.494118 0 0 0 0 0.411765 0 0 0 0 0.980392 0 0 0 1 0"/>
<feBlend mode="normal" in2="BackgroundImageFix" result="effect1_dropShadow_22_3"/>
<feBlend mode="normal" in="SourceGraphic" in2="effect1_dropShadow_22_3" result="shape"/>
</filter>
<radialGradient id="paint0_angular_22_3" cx="0" cy="0" r="1" gradientUnits="userSpaceOnUse" gradientTransform="translate(45.8448 18.3352) rotate(-90) scale(18.3352 45.8448)">
<stop stop-color="#9055FF"/>
<stop offset="1" stop-color="#1DD5DD"/>
</radialGradient>
<radialGradient id="paint1_angular_22_3" cx="0" cy="0" r="1" gradientUnits="userSpaceOnUse" gradientTransform="translate(476.214 141.814) rotate(-90) scale(15.8143 27.2142)">
<stop stop-color="#9055FF"/>
<stop offset="1" stop-color="#1DD5DD"/>
</radialGradient>
<radialGradient id="paint2_angular_22_3" cx="0" cy="0" r="1" gradientUnits="userSpaceOnUse" gradientTransform="translate(609.839 176.779) rotate(-90) scale(18.7793 45.8389)">
<stop stop-color="#9055FF"/>
<stop offset="1" stop-color="#1DD5DD"/>
</radialGradient>
<radialGradient id="paint3_angular_22_3" cx="0" cy="0" r="1" gradientUnits="userSpaceOnUse" gradientTransform="translate(407.498 277.715) rotate(-90) scale(15.7148 26.498)">
<stop stop-color="#9055FF"/>
<stop offset="1" stop-color="#1DD5DD"/>
</radialGradient>
<radialGradient id="paint4_angular_22_3" cx="0" cy="0" r="1" gradientUnits="userSpaceOnUse" gradientTransform="translate(323.274 37.2554) rotate(-90) scale(18.2554 43.2741)">
<stop stop-color="#9055FF"/>
<stop offset="1" stop-color="#1DD5DD"/>
</radialGradient>
<radialGradient id="paint5_angular_22_3" cx="0" cy="0" r="1" gradientUnits="userSpaceOnUse" gradientTransform="translate(171.667 285.746) rotate(-90) scale(15.7456 26.6673)">
<stop stop-color="#9055FF"/>
<stop offset="1" stop-color="#1DD5DD"/>
</radialGradient>
</defs>
</svg>
